<svg width="14" height="14" viewBox="0 0 14 14" fill="none" xmlns="http://www.w3.org/2000/svg">
<path d="M13.5 0H0.5C0.223437 0 0 0.269086 0 0.602151V9.93548C0 10.2685 0.223437 10.5376 0.5 10.5376H6.4375V12.6452H3.75C3.6125 12.6452 3.5 12.7806 3.5 12.9462V13.8495C3.5 13.9323 3.55625 14 3.625 14H10.375C10.4438 14 10.5 13.9323 10.5 13.8495V12.9462C10.5 12.7806 10.3875 12.6452 10.25 12.6452H7.5625V10.5376H13.5C13.7766 10.5376 14 10.2685 14 9.93548V0.602151C14 0.269086 13.7766 0 13.5 0ZM12.875 9.1828H1.125V1.35484H12.875V9.1828Z" fill="#50575E"/>
</svg>
