<svg width="16" height="16" viewBox="0 0 16 16" fill="none" xmlns="http://www.w3.org/2000/svg">
<path d="M10.5 1C10.8978 1 11.2794 1.16594 11.5607 1.46131C11.842 1.75668 12 2.15728 12 2.575V13.425C12 13.8427 11.842 14.2433 11.5607 14.5387C11.2794 14.8341 10.8978 15 10.5 15H5.5C5.10218 15 4.72064 14.8341 4.43934 14.5387C4.15804 14.2433 4 13.8427 4 13.425V2.575C4 2.15728 4.15804 1.75668 4.43934 1.46131C4.72064 1.16594 5.10218 1 5.5 1H10.5ZM10.5 2.05H5.5C5.36739 2.05 5.24021 2.10531 5.14645 2.20377C5.05268 2.30223 5 2.43576 5 2.575V13.425C5 13.7148 5.224 13.95 5.5 13.95H10.5C10.6326 13.95 10.7598 13.8947 10.8536 13.7962C10.9473 13.6978 11 13.5642 11 13.425V2.575C11 2.43576 10.9473 2.30223 10.8536 2.20377C10.7598 2.10531 10.6326 2.05 10.5 2.05ZM8.83267 11.85C8.96527 11.8498 9.09252 11.9049 9.18642 12.0033C9.28031 12.1016 9.33316 12.2351 9.33333 12.3743C9.33351 12.5135 9.281 12.6471 9.18736 12.7457C9.09372 12.8443 8.96661 12.8998 8.834 12.9L7.16733 12.9028C7.03473 12.903 6.90748 12.8479 6.81358 12.7495C6.71969 12.6512 6.66684 12.5177 6.66667 12.3785C6.66649 12.2393 6.719 12.1057 6.81264 12.0071C6.90629 11.9085 7.03339 11.853 7.166 11.8528L8.83267 11.85Z" fill="#50575E"/>
</svg>
