<svg width="16" height="16" viewBox="0 0 16 16" fill="none" xmlns="http://www.w3.org/2000/svg">
<path d="M12.6452 1H3.35484C2.61161 1 2 1.632 2 2.4V13.6C2 14.368 2.61161 15 3.35484 15H12.6452C13.3884 15 14 14.368 14 13.6V2.4C14 1.632 13.3884 1 12.6452 1ZM12.8387 13.6C12.8387 13.712 12.7535 13.8 12.6452 13.8H3.35484C3.24645 13.8 3.16129 13.712 3.16129 13.6V2.4C3.16129 2.288 3.24645 2.2 3.35484 2.2H12.6452C12.7535 2.2 12.8387 2.288 12.8387 2.4V13.6ZM8.77419 11.2C8.77419 11.64 8.42581 12 8 12C7.57419 12 7.22581 11.64 7.22581 11.2C7.22581 10.76 7.57419 10.4 8 10.4C8.42581 10.4 8.77419 10.76 8.77419 11.2Z" fill="#50575E"/>
</svg>
